<svg xmlns="http://www.w3.org/2000/svg" viewBox="0 0 32 32">
  <defs>
    <linearGradient id="g" x1="0" y1="0" x2="1" y2="1">
      <stop offset="0" stop-color="#00F5A0"/>
      <stop offset="1" stop-color="#00B4D8"/>
    </linearGradient>
  </defs>
  <path fill="url(#g)" d="M22 26c-5.514 0-10-4.486-10-10s4.486-10 10-10 10 4.486 10 10-4.486 10-10 10zm0-18c-4.411 0-8 3.589-8 8s3.589 8 8 8 8-3.589 8-8-3.589-8-8-8zM10 26c-5.514 0-10-4.486-10-10s4.486-10 10-10c1.29 0 2.554.248 3.756.735.512.208.758.791.551 1.303-.208.511-.792.757-1.303.551-.962-.391-1.973-.589-3.004-.589-4.411 0-8 3.589-8 8s3.589 8 8 8c1.031 0 2.042-.198 3.004-.589.512-.207 1.095.039 1.303.551s-.039 1.095-.551 1.303c-1.202.488-2.466.735-3.756.735zM17.876 21.351c-.164 0-.33-.04-.483-.125-.483-.268-.658-.876-.391-1.359.653-1.18.998-2.517.998-3.867s-.345-2.687-.998-3.867c-.268-.483-.092-1.092.391-1.359.482-.267 1.092-.092 1.359.391.816 1.475 1.248 3.147 1.248 4.835s-.432 3.359-1.248 4.835c-.183.329-.523.516-.876.516z"/>
</svg>
