
        <svg xmlns="http://www.w3.org/2000/svg" xmlns:xlink="http://www.w3.org/1999/xlink" version="1.1" width="3162.1621621621625" height="668.918918918919" viewBox="0 0 3162.1621621621625 668.918918918919">
			
			<g transform="scale(8.108108108108109) translate(10, 10)">
				<defs id="SvgjsDefs2714"><linearGradient id="SvgjsLinearGradient2719"><stop id="SvgjsStop2720" stop-color="#00ff8f" offset="0"/><stop id="SvgjsStop2721" stop-color="#00a1ff" offset="1"/></linearGradient></defs><g id="SvgjsG2715" featureKey="S6ay6y-0" transform="matrix(3.125,0,0,3.125,0,-18.75)" fill="#fff"><g xmlns="http://www.w3.org/2000/svg"><path d="M22 26c-5.514 0-10-4.486-10-10s4.486-10 10-10 10 4.486 10 10-4.486 10-10 10zm0-18c-4.411 0-8 3.589-8 8s3.589 8 8 8 8-3.589 8-8-3.589-8-8-8zM10 26c-5.514 0-10-4.486-10-10s4.486-10 10-10c1.29 0 2.554.248 3.756.735.512.208.758.791.551 1.303-.208.511-.792.757-1.303.551-.962-.391-1.973-.589-3.004-.589-4.411 0-8 3.589-8 8s3.589 8 8 8c1.031 0 2.042-.198 3.004-.589.512-.207 1.095.039 1.303.551s-.039 1.095-.551 1.303c-1.202.488-2.466.735-3.756.735zM17.876 21.351c-.164 0-.33-.04-.483-.125-.483-.268-.658-.876-.391-1.359.653-1.18.998-2.517.998-3.867s-.345-2.687-.998-3.867c-.268-.483-.092-1.092.391-1.359.482-.267 1.092-.092 1.359.391.816 1.475 1.248 3.147 1.248 4.835s-.432 3.359-1.248 4.835c-.183.329-.523.516-.876.516z"/></g></g><g id="SvgjsG2716" featureKey="j5pGhi-0" transform="matrix(3.940731485053139,0,0,3.940731485053139,116.68978683033465,-20.826609107469658)" fill="#fff"><path d="M9.74 20 l0 -5.36 l-5.8 0 l0 5.36 l-3.1 0 l0 -13.7 l3.1 0 l0 5.5 l5.8 0 l0 -5.5 l3.1 0 l0 13.7 l-3.1 0 z M23.92 20 l-2.74 0 l0 -1.02 c-0.7 0.74 -1.74 1.2 -2.98 1.2 c-2.4 0 -3.96 -1.66 -3.96 -4.14 l0 -6.3 l2.76 0 l0 5.82 c0 1.22 0.7 2.06 1.9 2.06 c1.34 0 2.26 -0.86 2.26 -2.28 l0 -5.6 l2.76 0 l0 10.26 z M27.78 9.74 l0 1.02 c0.52 -0.54 1.46 -1.2 2.84 -1.2 c1.16 0 2.2 0.42 2.94 1.4 c0.8 -0.84 1.88 -1.4 3.36 -1.4 c2.5 0 4 1.64 4 4.08 l0 6.36 l-2.76 0 l0 -5.9 c0 -1.18 -0.64 -1.98 -1.72 -1.98 c-1.24 0 -2.08 0.84 -2.08 2.22 l0 5.66 l-2.74 0 l0 -5.9 c0 -1.18 -0.64 -1.98 -1.72 -1.98 c-1.24 0 -2.08 0.84 -2.08 2.22 l0 5.66 l-2.78 0 l0 -10.26 l2.74 0 z M52.120000000000005 17.8 c-1 1.5 -2.58 2.44 -4.86 2.44 c-3.28 0 -5.4 -2.3 -5.4 -5.34 c0 -2.96 2.2 -5.36 5.42 -5.36 c3.24 0 5.2 2.24 5.2 5.22 c0 0.4 -0.04 0.92 -0.04 0.98 l-7.84 0 c0.3 1.3 1.28 2.14 2.72 2.14 c1.24 0 2.14 -0.54 2.72 -1.36 z M47.260000000000005 11.82 c-1.3 0 -2.2 0.7 -2.56 1.86 l4.98 0 c-0.3 -1.24 -1.3 -1.86 -2.42 -1.86 z M58.760000000000005 9.54 c3.16 0 5.52 2.36 5.52 5.36 c0 2.98 -2.36 5.34 -5.52 5.34 s-5.5 -2.34 -5.5 -5.34 c0 -2.98 2.36 -5.36 5.5 -5.36 z M58.760000000000005 12.059999999999999 c-1.56 0 -2.76 1.2 -2.76 2.84 s1.14 2.86 2.7 2.86 s2.82 -1.22 2.82 -2.86 s-1.2 -2.84 -2.76 -2.84 z"/></g>
			</g>
		</svg>
	